<svg width="899" height="117" viewBox="0 0 899 117" fill="none" xmlns="http://www.w3.org/2000/svg">
<path d="M2.576 62.448C0.784 59.248 0.144 55.28 0.912 51.696C1.424 49.776 2.192 47.984 3.472 46.448C4.752 44.784 6.288 43.632 8.08 42.736C10.64 41.584 13.456 41.2 16.272 40.688V37.36C16.272 36.08 16.272 34.8 16.528 33.52C16.784 32.24 17.296 31.088 18.064 30.064C19.472 27.888 21.776 26.48 23.952 25.072C27.536 22.768 31.12 20.464 34.832 18.16C33.552 18.288 32.272 18.288 30.992 18.032C28.432 17.776 25.872 16.88 23.312 16.112C20.752 15.472 17.936 14.96 15.376 15.472C13.84 15.728 12.304 16.368 11.152 17.264C9.872 18.288 9.104 19.568 8.592 20.848H5.648C7.824 15.6 11.792 10.864 17.04 7.79199C20.112 6.128 23.696 4.976 27.408 4.976C30.224 4.84799 33.04 5.488 35.856 5.99999C38.672 6.63999 41.488 7.28 44.304 7.408C46.864 7.408 49.552 7.15199 51.984 6.384C53.648 5.87199 55.184 5.104 56.72 4.20799L55.952 7.15199L37.008 21.872C36.24 22.512 35.6 23.024 34.96 23.664C34.32 24.432 33.808 25.2 33.552 25.968C32.784 27.632 32.784 29.552 32.784 31.344V50.032V63.088C32.784 65.648 32.656 68.208 32.016 70.64C31.504 73.072 30.352 75.376 28.944 77.296C24.464 83.824 17.168 87.92 9.616 89.84L8.464 86.768C10 85.872 11.408 84.72 12.432 83.184C14.48 80.624 15.504 77.168 15.888 73.84C16.272 70.512 16.272 67.184 16.272 63.728C16.272 60.912 16.272 57.968 16.272 55.024C14.992 55.024 13.584 55.024 12.304 55.024C11.536 55.024 10.768 55.024 10 55.152C9.232 55.28 8.464 55.536 7.824 56.048C6.416 56.816 5.52 58.224 5.136 59.632C4.88 60.656 4.88 61.552 5.008 62.448H2.576ZM57.232 102.512C48.272 97.904 38.16 95.6 28.048 96.368C23.696 96.752 19.472 97.904 15.504 99.568C11.92 101.232 8.592 103.408 5.904 106.096H2.704C9.616 94.064 21.776 85.104 35.344 82.16C36.112 81.136 36.752 79.984 37.264 78.704C37.904 77.424 38.288 76.016 38.544 74.608C38.8 73.2 38.8 71.792 38.8 70.256V30.32C43.664 24.048 49.552 18.544 55.952 13.808C62.608 9.2 70.032 5.35999 77.712 2.8L98.448 27.12L82.448 38.256C85.264 39.28 87.952 40.56 90.512 41.84C93.84 43.76 97.04 45.936 99.984 48.24V80.368L57.232 102.512ZM64.528 85.872C67.472 87.408 70.288 89.328 72.72 91.504L83.216 86.64V72.56L64.528 82.032V85.872ZM64.528 47.344V64.496L81.424 55.92C79.504 54.64 77.584 53.36 75.536 52.208C72.08 50.288 68.368 48.624 64.528 47.344ZM60.944 84.208C60.944 60.912 60.944 37.744 60.944 14.448C59.792 15.344 58.768 16.368 58 17.52C56.848 19.312 56.08 21.488 55.824 23.664V50.032V57.2C55.824 59.12 55.824 61.168 55.568 63.088C55.184 65.008 54.544 66.928 53.648 68.72C51.856 72.176 48.912 74.992 45.968 77.552C44.688 78.832 43.28 80.112 41.872 81.264C47.76 80.88 53.776 81.648 59.28 83.568C59.792 83.824 60.432 84.08 60.944 84.208ZM64.528 68.592V77.936L83.216 68.464V59.12L64.528 68.592ZM64.528 13.68C64.528 24.56 64.528 35.44 64.528 46.448L81.552 33.648L64.528 13.68ZM145.356 86L147.788 88.816L128.588 102.64L114.508 91.632L110.284 94.704L108.364 92.272L116.428 86.768V52.976L112.076 47.472L107.212 50.544L105.42 48.112L122.572 36.464L131.916 46.576L140.876 36.336H142.156C143.308 38.256 145.484 39.536 147.66 39.536C148.94 39.536 150.092 39.28 151.116 38.768C152.14 38.256 153.036 37.36 153.676 36.336H157.516C157.26 38.768 156.876 41.2 156.236 43.504C155.596 45.552 154.828 47.472 153.804 49.264C152.652 50.928 151.116 52.464 149.196 53.36C147.66 54 145.996 54.384 144.332 54.256C142.796 54.256 141.132 53.744 139.596 53.104C137.292 52.208 135.244 50.8 133.324 49.008V86.768L138.444 90.736L145.356 86ZM163.841 87.92L167.809 84.592V54.64C167.809 53.744 167.809 52.848 167.681 51.952C167.425 51.056 167.169 50.16 166.657 49.392C166.145 48.624 165.377 48.112 164.481 47.728C163.713 47.344 162.817 47.216 161.921 47.472C161.537 47.472 161.153 47.6 160.769 47.728C159.617 48.112 158.721 48.752 157.825 49.392L156.545 47.6L173.057 36.976C174.209 37.488 175.489 38 176.513 38.768C178.177 40.048 179.585 41.456 180.737 43.12C181.633 44.528 182.273 45.936 182.657 47.6C183.041 49.136 183.169 50.672 183.169 52.336V83.056L191.105 90.736L197.249 86.256C197.249 85.488 197.249 84.72 197.249 83.952V79.984V53.744L190.593 47.856L202.625 36.72L211.073 44.144L215.553 41.072L217.473 43.504L211.969 47.728V78.32V83.696C211.969 85.744 212.097 87.792 212.993 89.584C213.633 90.736 214.401 91.76 215.425 92.4L220.161 88.56L222.593 91.76L207.233 102.256C205.185 102 203.137 101.104 201.601 99.696C199.553 97.776 198.273 95.088 197.761 92.4C197.633 91.504 197.505 90.736 197.377 89.84L181.249 102.512L163.841 87.92ZM248.809 86.768L252.905 90.864L256.873 88.176L259.177 90.992L243.305 102.128L230.121 90.864L225.257 93.936L222.953 90.992L231.657 85.488V27.248C231.657 26.608 231.657 25.968 231.401 25.328C231.273 24.688 231.017 24.048 230.633 23.536C230.121 22.768 229.353 22.128 228.457 21.744C227.433 21.232 226.537 20.848 225.513 20.464V18.672L246.377 3.952H248.809V51.44L264.681 36.464L278.249 47.728L283.369 43.632L285.545 46.448L280.041 50.928V84.336C280.041 87.792 280.041 91.248 279.401 94.704C278.761 98.16 277.609 101.488 275.817 104.432C273.129 108.656 269.289 111.984 264.681 114.032C259.945 116.208 254.569 116.976 249.449 116.208V113.136C252.137 112.496 254.825 111.088 256.873 109.168C259.177 106.864 260.713 104.048 261.737 100.976C263.401 95.984 263.529 90.736 263.529 85.488V54.896L255.849 48.496L248.809 55.152V86.768ZM333.967 83.824C335.503 82.928 336.911 81.776 337.935 80.24C339.983 77.68 341.007 74.224 341.391 70.896C341.775 67.568 341.775 64.24 341.775 60.784C341.775 60.656 341.775 60.528 341.775 60.528C340.751 60.528 339.727 60.528 338.575 60.528C337.807 60.528 337.039 60.528 336.271 60.656C335.503 60.784 334.735 61.04 334.095 61.424C332.687 62.192 331.791 63.6 331.407 65.136C331.151 66.032 331.151 66.928 331.279 67.824H328.847C327.055 64.624 326.415 60.784 327.311 57.072C327.695 55.152 328.591 53.36 329.743 51.824C331.023 50.288 332.559 49.008 334.479 48.112C336.655 47.088 339.215 46.704 341.775 46.32V42.992C341.775 41.712 341.775 40.304 342.031 38.896C342.287 37.488 342.799 36.208 343.567 35.056C344.975 32.752 347.407 31.088 349.711 29.552L359.823 22.896H342.031C340.751 22.896 339.599 22.896 338.447 22.512C337.423 22.128 336.399 21.36 335.631 20.464C334.479 19.312 333.839 17.776 333.327 16.112C332.943 14.576 332.815 12.912 332.687 11.248C332.687 7.92 333.071 4.71999 333.967 1.52L336.783 1.64799C336.911 2.544 337.295 3.56799 337.935 4.336C338.575 5.104 339.343 5.87199 340.239 6.256C341.135 6.768 342.159 7.02399 343.055 7.15199C344.079 7.28 345.103 7.28 346.127 7.28H381.071C386.447 7.28 391.823 7.66399 396.815 9.712C401.807 11.76 406.031 15.344 409.103 19.568C414.479 27.12 416.783 36.464 417.295 45.68C417.807 54.64 416.655 63.6 414.223 72.048C412.943 76.784 411.151 81.264 408.975 85.616L376.975 103.28C370.831 98.928 363.407 96.368 355.855 96.112C346.127 95.984 336.399 99.568 329.231 106.096H325.647C331.023 95.728 340.751 87.664 352.015 84.08C354.319 81.776 356.495 79.472 358.543 77.04C359.951 75.248 361.231 73.456 361.871 71.408C362.639 69.36 362.767 67.184 362.767 64.752V51.696V41.712C362.767 37.872 362.895 33.776 364.431 29.808C365.327 27.248 366.735 24.944 368.527 22.896H364.431C362.383 24.688 360.463 26.736 359.439 29.168C358.415 31.6 358.287 34.416 358.287 37.104V47.088V60.144C358.287 62.704 358.159 65.264 357.519 67.696C356.879 70.128 355.855 72.432 354.447 74.352C349.967 80.88 342.671 84.976 335.119 86.896L333.967 83.824ZM376.719 83.568C382.607 85.104 388.111 87.792 392.847 91.376C395.535 84.848 397.455 77.936 398.607 70.896C399.503 65.648 400.015 60.4 400.015 55.024L376.719 66.928V83.568ZM376.719 23.024C376.719 31.6 376.719 40.176 376.719 48.88L397.839 38.128C396.815 34.928 395.279 31.984 393.103 29.424C390.927 26.992 388.239 25.2 385.295 24.176C382.607 23.152 379.663 23.024 376.719 23.024ZM373.135 82.8C373.135 63.088 373.135 43.376 373.135 23.664C370.703 25.584 368.783 28.144 367.759 31.088C366.607 34.288 366.351 38 366.351 41.84V51.824V64.88C366.351 67.312 366.223 70 365.327 72.56C364.431 75.12 362.895 77.424 361.231 79.344C360.335 80.496 359.439 81.52 358.415 82.672C363.279 81.904 368.271 82.032 373.135 82.8ZM376.719 52.976V62.832L400.015 51.056C399.887 50.544 399.887 50.032 399.887 49.52C399.759 46.96 399.375 44.4 398.863 41.84L376.719 52.976ZM445.085 82.416L459.805 92.272V55.408L445.085 45.68V82.416ZM424.221 93.424L422.045 90.608L428.573 85.36C428.573 74.352 428.573 63.344 428.573 52.336L457.373 35.824L475.805 49.904V84.848L447.517 102.128C441.501 97.776 435.485 93.424 429.597 89.072L424.221 93.424ZM509.684 86.768L515.7 92.784L520.052 90.48L521.844 92.912L504.18 102.128L490.74 90.48L485.876 93.552L483.956 90.992L492.532 85.488V54.256C492.532 53.616 492.532 52.976 492.404 52.336C492.276 51.696 492.02 51.184 491.636 50.544C491.124 49.776 490.228 49.136 489.332 48.752C488.436 48.24 487.412 48.112 486.388 48.112V46.32L507.252 25.328H509.684V40.048H524.916L518.9 47.088H509.684V86.768ZM577.802 34.544C574.474 33.136 571.658 30.32 570.25 26.864C568.842 23.408 568.714 19.44 569.994 15.984C571.018 13.168 572.81 10.608 575.114 8.688C577.418 6.768 580.234 5.35999 583.178 4.592C586.378 3.824 589.706 3.696 593.034 4.07999C596.362 4.592 599.562 5.488 602.762 6.51199C607.37 8.048 612.106 9.84 616.97 10.864C620.682 11.76 624.394 12.912 628.234 13.04C629.514 13.04 630.922 12.912 632.074 12.4C632.586 12.016 633.098 11.632 633.482 11.12C633.866 10.48 634.122 9.96799 634.25 9.2C634.25 8.56 634.122 7.79199 633.866 7.28C633.482 6.63999 632.97 5.99999 632.458 5.616C631.306 4.71999 630.026 4.336 628.618 3.952C627.21 3.696 625.802 3.43999 624.394 3.312V0.879997C626.058 0.751999 627.722 0.751999 629.258 0.879997C632.202 1.26399 635.274 2.032 637.834 3.43999C640.522 4.84799 642.826 7.02399 644.234 9.712C645.77 12.528 646.154 15.984 645.386 19.184C644.49 22.384 642.442 25.072 639.626 26.992C637.322 28.528 634.506 29.552 631.562 29.808C630.538 29.936 629.386 30.064 628.234 30.064V45.424L636.81 54L628.234 62.576V82.032C629.258 81.392 630.026 80.752 630.922 80.112C635.658 76.144 639.37 71.024 641.674 65.264H644.106C644.362 71.152 642.954 77.04 640.266 82.288C637.194 88.048 632.586 92.912 626.954 96.24C621.322 99.568 614.922 101.36 608.394 101.616C596.49 102 584.458 97.008 576.394 88.176C568.33 79.344 564.49 66.8 566.666 55.152C568.074 47.856 571.658 41.072 576.906 35.824C582.154 30.704 588.938 27.248 596.234 25.968L597.514 27.888C591.882 31.6 587.402 36.848 584.586 42.992L612.746 30.96V69.872L590.218 79.344C592.01 81.136 594.058 82.672 596.234 83.824C601.61 86.896 608.01 88.048 614.154 87.28C617.866 86.896 621.45 85.744 624.65 84.08V62.448L616.33 54L624.65 45.552V29.808C624.138 29.808 623.498 29.68 622.986 29.552C617.226 28.784 611.594 27.12 605.962 25.84C600.202 24.432 594.57 22.768 588.81 21.616C586.506 21.104 584.074 20.848 581.77 21.36C580.49 21.616 579.466 22.128 578.442 22.896C577.546 23.536 576.778 24.56 576.266 25.712C575.754 26.992 575.754 28.4 576.266 29.808C576.778 31.088 577.802 32.112 579.082 32.752L577.802 34.544ZM582.922 47.344C580.874 53.872 580.746 61.168 582.922 67.696C584.074 70.896 585.738 73.968 587.786 76.656L596.234 73.072V41.712L582.922 47.344ZM688.808 87.408L691.88 89.84L673.448 102.64L661.16 91.632L656.936 94.704L655.016 92.272L663.08 86.768V52.976L658.728 47.472L653.864 50.544L651.944 48.112L669.224 36.464L678.952 48.112V86.768L683.304 90.992L688.808 87.408ZM658.984 19.184L671.144 8.432L682.024 20.848L669.864 31.6L658.984 19.184ZM754.795 92.528L740.715 103.92L728.043 92.912L733.419 87.92V56.432L724.587 48.368L718.955 51.696V87.92L724.459 92.912L712.171 103.92L697.451 92.272L702.443 87.92V54L697.451 48.496L692.587 51.568L690.795 49.008L708.587 36.848L717.931 47.344L734.699 36.848L747.499 47.728L765.035 36.848L778.347 48.24L782.571 44.912L784.875 47.6L778.475 52.848V84.976L784.491 90.992L789.995 86.896V91.632L771.051 103.92L758.379 92.912L763.755 87.92V56.432L754.923 48.368L748.139 52.464V86.64L754.795 92.528ZM793.831 93.808L791.527 90.992L797.671 86.128V52.336L828.263 36.464L841.191 56.048V56.688L813.543 73.84V79.344L828.903 89.84L842.983 78.832L844.903 81.904L818.535 103.28L799.463 89.2L793.831 93.808ZM813.543 70.768L827.111 62.192L815.975 46.192L813.543 47.6V70.768ZM898.876 36.72C898.492 41.456 897.34 46.192 895.292 50.416C894.396 52.592 893.116 54.64 891.708 56.56C890.428 57.968 889.148 59.248 887.74 60.528L898.748 68.592V87.92L873.532 103.28C872.252 100.976 870.076 99.056 867.644 98.16C866.364 97.648 865.084 97.264 863.804 97.392C862.396 97.392 861.116 97.776 859.964 98.544C859.196 99.056 858.556 99.824 858.3 100.72C857.916 101.616 857.916 102.64 858.172 103.536C858.556 104.304 859.068 104.944 859.836 105.328L858.556 108.784C855.484 107.504 852.924 105.072 851.644 102C850.364 98.928 850.364 95.472 851.26 92.272C852.796 87.664 856.124 83.952 859.58 80.496C860.604 79.472 861.628 78.448 862.78 77.424L853.052 69.744V51.824L879.548 36.464C880.828 38.512 882.62 40.176 884.796 41.2C886.076 41.712 887.484 42.096 889.02 42.096C890.428 42.096 891.836 41.584 892.988 40.816C894.268 39.792 895.036 38.384 895.292 36.72V36.848C895.292 36.848 895.292 36.848 895.292 36.72H898.876ZM875.196 71.28L870.588 75.248C867.644 77.808 864.828 80.368 862.14 82.928C860.86 84.208 859.58 85.488 858.428 86.768C860.604 85.104 863.292 84.08 866.108 83.824C868.924 83.696 871.74 84.208 874.3 85.488C877.756 87.152 880.7 90.096 882.236 93.68V77.04L875.196 71.28ZM874.812 66.928L884.284 58.736C885.82 57.456 887.484 56.048 888.764 54.384C889.148 53.872 889.532 53.36 889.916 52.848C888.508 53.488 886.972 53.872 885.436 54.128C882.748 54.512 880.06 54.128 877.5 52.976C873.916 51.44 870.972 48.368 869.564 44.784V61.424L874.812 66.928Z"/>
</svg>
